<?xml version="1.0" encoding="utf-8"?>
<!-- Generator: Adobe Illustrator 25.2.1, SVG Export Plug-In . SVG Version: 6.00 Build 0)  -->
<svg version="1.1" id="Layer_1" xmlns="http://www.w3.org/2000/svg" xmlns:xlink="http://www.w3.org/1999/xlink" x="0px" y="0px"
	 viewBox="0 0 612 792" style="enable-background:new 0 0 612 792;" xml:space="preserve">
<style type="text/css">
	.st0{fill:none;stroke:#000000;stroke-width:14;stroke-miterlimit:10;}
	.st1{fill:none;stroke:#000000;stroke-width:6;stroke-miterlimit:10;}
	.st2{fill:none;stroke:#000000;stroke-width:14;stroke-linecap:round;stroke-miterlimit:10;}
</style>
<path class="st0" d="M325.2,699.73L325.2,699.73c-141.56,0-256.31-114.75-256.31-256.31v-87.18
	c0-141.56,114.75-256.31,256.31-256.31h0c141.56,0,256.31,114.75,256.31,256.31v87.18C581.51,584.97,466.76,699.73,325.2,699.73z"/>
<path class="st1" d="M326.26,675.07L326.26,675.07c-126.69,0-229.4-102.71-229.4-229.4V354.5c0-126.69,102.71-229.4,229.4-229.4h0
	c126.69,0,229.4,102.71,229.4,229.4v91.17C555.66,572.36,452.96,675.07,326.26,675.07z"/>
<path class="st2" d="M309.21,207.4c12.52,45.85,57.61,70.19,93.67,59.26c26.87-8.15,47.07-35.38,49.7-67.87"/>
<line class="st2" x1="380.9" y1="177.56" x2="385.94" y2="298.8"/>
<path class="st2" d="M174.31,260.07c9.18,33.63,42.26,51.49,68.72,43.47c19.71-5.98,34.53-25.96,36.46-49.79"/>
<line class="st2" x1="226.9" y1="238.18" x2="230.6" y2="327.12"/>
<path class="st2" d="M335.62,329.74c-16.22,32.92-10.91,71.42,12.41,95.81c28.56,29.87,81.32,35.61,113,4.07
	c27.91-27.79,30.05-75.15,2.7-107.57"/>
<ellipse class="st2" cx="265.26" cy="380.33" rx="30.02" ry="21.75"/>
<line class="st2" x1="433.1" y1="353.1" x2="402.99" y2="440.92"/>
<line class="st2" x1="378.34" y1="368.62" x2="410.18" y2="404.18"/>
<ellipse class="st2" cx="194.49" cy="457.11" rx="64.67" ry="53.11"/>
<path class="st2" d="M259.54,570.48c-6.85-20.84-28.97-31.07-48.7-26.1c-14.7,3.7-28.29,23.37-29.73,38.13"/>
<line class="st2" x1="222.05" y1="605.68" x2="218.61" y2="533.64"/>
<path class="st2" d="M308.93,609.39c-8.11-25.83-18.1-61.42-7.22-94.85c6.46-19.86,8.96-23.3,17.28-28.26
	c8.65-5.16,14.8-8.08,28.9-6.56c11.14,1.2,41.05,10.07,40.41,40.82c-0.81,39.05,19.67,50.33,37.53,54.03
	c25,5.18,44.73,5.43,60.62-3.6c29.29-16.65,38.37-60.41,11.55-103.26"/>
</svg>
